<?xml version="1.0" encoding="UTF-8"?>
<svg width="1320px" height="764px" viewBox="0 0 1320 764" version="1.1" xmlns="http://www.w3.org/2000/svg" xmlns:xlink="http://www.w3.org/1999/xlink">
    <!-- Generator: Sketch 42 (36781) - http://www.bohemiancoding.com/sketch -->
    <title>Artboard 5</title>
    <desc>Created with Sketch.</desc>
    <defs></defs>
    <g id="Page-1" stroke="none" stroke-width="1" fill="none" fill-rule="evenodd">
        <g id="Artboard-5">
            <g id="Group-4" transform="translate(0.000000, -1.000000)">
                <g id="Group-3" transform="translate(660.000000, 383.000000)" stroke="#007CB9">
                    <g id="Group-2">
                        <g id="Group" transform="translate(307.000000, 59.000000)" stroke-width="12">
                            <path d="M56.7176861,101.237997 C28.921305,120.978606 7.69160609,217.450738 33.4586811,238.316979 C47.03755,249.31318 72.9979771,250.095474 91.32173,235.881444 C109.645483,221.667414 117.206882,195.752972 120.349575,195.176123 C122.380321,194.803375 126.51693,217.516951 141.517397,231.748433 C156.517865,245.979915 179.962517,249.857156 190.533063,247.748289 C200.993516,245.661386 217.294727,231.614635 218.590608,215.546606 C219.886488,199.478577 205.882543,178.195291 205.96617,178.202707 C209.043755,178.47565 345.632516,223.657408 330.434318,114.480096 C326.258648,84.4838751 280.176931,79.331211 227.589148,75.7881636 C175.001366,72.2451162 71.5274765,90.7202865 56.7176861,101.237997 Z" id="Oval-4" transform="translate(176.724242, 161.813588) rotate(-36.000000) translate(-176.724242, -161.813588) "></path>
                        </g>
                        <g id="Group" transform="translate(176.500000, 220.500000) scale(-1, 1) translate(-176.500000, -220.500000) translate(0.000000, 59.000000)" stroke-width="12">
                            <path d="M56.7176861,101.237997 C28.921305,120.978606 7.69160609,217.450738 33.4586811,238.316979 C47.03755,249.31318 72.9979771,250.095474 91.32173,235.881444 C109.645483,221.667414 117.206882,195.752972 120.349575,195.176123 C122.380321,194.803375 126.51693,217.516951 141.517397,231.748433 C156.517865,245.979915 179.962517,249.857156 190.533063,247.748289 C200.993516,245.661386 217.294727,231.614635 218.590608,215.546606 C219.886488,199.478577 205.882543,178.195291 205.96617,178.202707 C209.043755,178.47565 345.632516,223.657408 330.434318,114.480096 C326.258648,84.4838751 280.176931,79.331211 227.589148,75.7881636 C175.001366,72.2451162 71.5274765,90.7202865 56.7176861,101.237997 Z" id="Oval-4" transform="translate(176.724242, 161.813588) rotate(-36.000000) translate(-176.724242, -161.813588) "></path>
                        </g>
                        <ellipse id="Oval-Copy" stroke-width="20" transform="translate(335.751868, 43.843302) rotate(5.000000) translate(-335.751868, -43.843302) " cx="335.751868" cy="43.8433024" rx="130.406682" ry="32.6016704"></ellipse>
                    </g>
                    <circle id="Oval-7" stroke-width="12" cx="330.5" cy="160.5" r="40.5"></circle>
                </g>
                <g id="Group-3" stroke="#007CB9">
                    <g id="Group-2">
                        <g id="Group" transform="translate(307.000000, 59.000000)" stroke-width="12">
                            <path d="M56.7176861,101.237997 C28.921305,120.978606 7.69160609,217.450738 33.4586811,238.316979 C47.03755,249.31318 72.9979771,250.095474 91.32173,235.881444 C109.645483,221.667414 117.206882,195.752972 120.349575,195.176123 C122.380321,194.803375 126.51693,217.516951 141.517397,231.748433 C156.517865,245.979915 179.962517,249.857156 190.533063,247.748289 C200.993516,245.661386 217.294727,231.614635 218.590608,215.546606 C219.886488,199.478577 205.882543,178.195291 205.96617,178.202707 C209.043755,178.47565 345.632516,223.657408 330.434318,114.480096 C326.258648,84.4838751 280.176931,79.331211 227.589148,75.7881636 C175.001366,72.2451162 71.5274765,90.7202865 56.7176861,101.237997 Z" id="Oval-4" transform="translate(176.724242, 161.813588) rotate(-36.000000) translate(-176.724242, -161.813588) "></path>
                        </g>
                        <g id="Group" transform="translate(176.500000, 220.500000) scale(-1, 1) translate(-176.500000, -220.500000) translate(0.000000, 59.000000)" stroke-width="12">
                            <path d="M56.7176861,101.237997 C28.921305,120.978606 7.69160609,217.450738 33.4586811,238.316979 C47.03755,249.31318 72.9979771,250.095474 91.32173,235.881444 C109.645483,221.667414 117.206882,195.752972 120.349575,195.176123 C122.380321,194.803375 126.51693,217.516951 141.517397,231.748433 C156.517865,245.979915 179.962517,249.857156 190.533063,247.748289 C200.993516,245.661386 217.294727,231.614635 218.590608,215.546606 C219.886488,199.478577 205.882543,178.195291 205.96617,178.202707 C209.043755,178.47565 345.632516,223.657408 330.434318,114.480096 C326.258648,84.4838751 280.176931,79.331211 227.589148,75.7881636 C175.001366,72.2451162 71.5274765,90.7202865 56.7176861,101.237997 Z" id="Oval-4" transform="translate(176.724242, 161.813588) rotate(-36.000000) translate(-176.724242, -161.813588) "></path>
                        </g>
                        <ellipse id="Oval-Copy" stroke-width="20" transform="translate(335.751868, 43.843302) rotate(5.000000) translate(-335.751868, -43.843302) " cx="335.751868" cy="43.8433024" rx="130.406682" ry="32.6016704"></ellipse>
                    </g>
                    <circle id="Oval-7" stroke-width="12" cx="330.5" cy="160.5" r="40.5"></circle>
                </g>
                <g id="Group-3" transform="translate(0.000000, 382.000000)">
                    <g id="Group-2">
                        <g id="Group" transform="translate(307.000000, 59.000000)">
                            <path d="M56.7176861,101.237997 C28.921305,120.978606 7.69160609,217.450738 33.4586811,238.316979 C47.03755,249.31318 72.9979771,250.095474 91.32173,235.881444 C109.645483,221.667414 117.206882,195.752972 120.349575,195.176123 C122.380321,194.803375 126.51693,217.516951 141.517397,231.748433 C156.517865,245.979915 179.962517,249.857156 190.533063,247.748289 C200.993516,245.661386 217.294727,231.614635 218.590608,215.546606 C219.886488,199.478577 205.882543,178.195291 205.96617,178.202707 C209.043755,178.47565 345.632516,223.657408 330.434318,114.480096 C326.258648,84.4838751 280.176931,79.331211 227.589148,75.7881636 C175.001366,72.2451162 71.5274765,90.7202865 56.7176861,101.237997 Z" id="Oval-4" transform="translate(176.724242, 161.813588) rotate(-36.000000) translate(-176.724242, -161.813588) "></path>
                        </g>
                        <g id="Group" transform="translate(176.500000, 220.500000) scale(-1, 1) translate(-176.500000, -220.500000) translate(0.000000, 59.000000)">
                            <path d="M56.7176861,101.237997 C28.921305,120.978606 7.69160609,217.450738 33.4586811,238.316979 C47.03755,249.31318 72.9979771,250.095474 91.32173,235.881444 C109.645483,221.667414 117.206882,195.752972 120.349575,195.176123 C122.380321,194.803375 126.51693,217.516951 141.517397,231.748433 C156.517865,245.979915 179.962517,249.857156 190.533063,247.748289 C200.993516,245.661386 217.294727,231.614635 218.590608,215.546606 C219.886488,199.478577 205.882543,178.195291 205.96617,178.202707 C209.043755,178.47565 345.632516,223.657408 330.434318,114.480096 C326.258648,84.4838751 280.176931,79.331211 227.589148,75.7881636 C175.001366,72.2451162 71.5274765,90.7202865 56.7176861,101.237997 Z" id="Oval-4" transform="translate(176.724242, 161.813588) rotate(-36.000000) translate(-176.724242, -161.813588) "></path>
                        </g>
                        <ellipse id="Oval-Copy" transform="translate(335.751868, 43.843302) rotate(5.000000) translate(-335.751868, -43.843302) " cx="335.751868" cy="43.8433024" rx="130.406682" ry="32.6016704"></ellipse>
                    </g>
                    <circle id="Oval-7" cx="330.5" cy="160.5" r="40.5"></circle>
                </g>
                <g id="Group-3" transform="translate(660.000000, 1.000000)">
                    <g id="Group-2">
                        <g id="Group" transform="translate(307.000000, 59.000000)">
                            <path d="M56.7176861,101.237997 C28.921305,120.978606 7.69160609,217.450738 33.4586811,238.316979 C47.03755,249.31318 72.9979771,250.095474 91.32173,235.881444 C109.645483,221.667414 117.206882,195.752972 120.349575,195.176123 C122.380321,194.803375 126.51693,217.516951 141.517397,231.748433 C156.517865,245.979915 179.962517,249.857156 190.533063,247.748289 C200.993516,245.661386 217.294727,231.614635 218.590608,215.546606 C219.886488,199.478577 205.882543,178.195291 205.96617,178.202707 C209.043755,178.47565 345.632516,223.657408 330.434318,114.480096 C326.258648,84.4838751 280.176931,79.331211 227.589148,75.7881636 C175.001366,72.2451162 71.5274765,90.7202865 56.7176861,101.237997 Z" id="Oval-4" transform="translate(176.724242, 161.813588) rotate(-36.000000) translate(-176.724242, -161.813588) "></path>
                        </g>
                        <g id="Group" transform="translate(176.500000, 220.500000) scale(-1, 1) translate(-176.500000, -220.500000) translate(0.000000, 59.000000)">
                            <path d="M56.7176861,101.237997 C28.921305,120.978606 7.69160609,217.450738 33.4586811,238.316979 C47.03755,249.31318 72.9979771,250.095474 91.32173,235.881444 C109.645483,221.667414 117.206882,195.752972 120.349575,195.176123 C122.380321,194.803375 126.51693,217.516951 141.517397,231.748433 C156.517865,245.979915 179.962517,249.857156 190.533063,247.748289 C200.993516,245.661386 217.294727,231.614635 218.590608,215.546606 C219.886488,199.478577 205.882543,178.195291 205.96617,178.202707 C209.043755,178.47565 345.632516,223.657408 330.434318,114.480096 C326.258648,84.4838751 280.176931,79.331211 227.589148,75.7881636 C175.001366,72.2451162 71.5274765,90.7202865 56.7176861,101.237997 Z" id="Oval-4" transform="translate(176.724242, 161.813588) rotate(-36.000000) translate(-176.724242, -161.813588) "></path>
                        </g>
                        <ellipse id="Oval-Copy" transform="translate(335.751868, 43.843302) rotate(5.000000) translate(-335.751868, -43.843302) " cx="335.751868" cy="43.8433024" rx="130.406682" ry="32.6016704"></ellipse>
                    </g>
                    <circle id="Oval-7" cx="330.5" cy="160.5" r="40.5"></circle>
                </g>
            </g>
        </g>
    </g>
</svg>